<svg width="32" height="32" viewBox="0 0 32 32" fill="none" xmlns="http://www.w3.org/2000/svg">
<g clip-path="url(#clip0)">
<path d="M31.6646 19.7699C31.4612 19.6891 31.229 19.7396 31.0779 19.8978L28.8 22.2921V8.07068H28.8027L30.9761 5.724C31.176 5.50794 31.1628 5.17029 30.9465 4.97034C30.9465 4.97034 30.9463 4.9701 30.946 4.96985L30.1638 4.24183L31.2507 3.06849C31.4504 2.85218 31.437 2.51478 31.2207 2.31507L28.874 0.141729C28.658 -0.0582227 28.3206 -0.0452832 28.1206 0.171025L24.3286 4.26551H5.8667C5.86499 2.79334 4.67212 1.60047 3.19995 1.59876H2.66675C1.19458 1.60047 0.00170899 2.79334 0 4.26551V27.1989C0 27.4933 0.23877 27.7321 0.533447 27.7321H8.60693L7.48682 29.077C7.29858 29.3036 7.32935 29.6398 7.55566 29.828L10.0149 31.8756C10.2412 32.0641 10.5776 32.0333 10.7661 31.807L10.7664 31.8068L13.4961 28.5272C13.6846 28.3002 13.8059 28.0245 13.8459 27.7321H23.6187L20.4133 31.098C20.2104 31.3114 20.219 31.6491 20.4324 31.8519C20.5315 31.9462 20.6631 31.9989 20.8 31.9987H31.4666C31.7612 31.9987 32 31.7599 32 31.4655V20.2655C32 20.0472 31.8672 19.851 31.6646 19.7699ZM29.8311 5.38538L28.8 6.50061V5.71619L29.4399 5.02283L29.8311 5.38538ZM27.7334 5.29041V5.29798L23.2229 10.1727L21.6565 8.72351L27.0901 2.85145L28.6565 4.30066L27.7397 5.29041H27.7334ZM22.1985 10.6771L20.9717 11.035L21.2336 9.78382L22.1985 10.6771ZM28.5393 1.28577L30.105 2.73426L29.3804 3.51868L27.8145 2.06873L28.5393 1.28577ZM2.66675 2.66541H3.19995C4.08374 2.66541 4.80005 3.38172 4.80005 4.26551V24.546C4.34106 24.193 3.77881 24.0006 3.19995 23.9987H2.66675C2.08765 24.0006 1.52563 24.193 1.06665 24.546V4.26551C1.06665 3.38172 1.78296 2.66541 2.66675 2.66541ZM2.66675 25.0653H3.19995C4.08374 25.0653 4.80005 25.7819 4.80005 26.6654H1.06665C1.06665 25.7819 1.78296 25.0653 2.66675 25.0653ZM12.6768 27.8451L12.3354 28.2548L10.696 26.89L11.0369 26.4799C11.2253 26.2535 11.5615 26.2228 11.7878 26.4113C11.7881 26.4113 11.7881 26.4115 11.7883 26.4115L12.6079 27.0922C12.8345 27.2804 12.8655 27.6166 12.6772 27.8431C12.677 27.8434 12.677 27.8434 12.6768 27.8436V27.8451ZM10.2881 30.7145L8.64844 29.3497L10.0134 27.7096L11.6528 29.0746L10.2881 30.7145ZM13.6218 26.6654C13.5332 26.5177 13.4211 26.3856 13.29 26.2741L12.4705 25.5919C11.7913 25.0265 10.7825 25.1185 10.217 25.7977L9.49341 26.6654H5.8667V5.33216H23.3418L20.5115 8.39075C20.4709 8.43641 20.4387 8.48914 20.4165 8.54602C20.4102 8.56141 20.4053 8.57581 20.3999 8.59192C20.3948 8.60779 20.3867 8.62391 20.3828 8.641L19.7461 11.6852C19.686 11.9735 19.8711 12.256 20.1594 12.316C20.2451 12.3339 20.3337 12.3304 20.4175 12.306L23.4043 11.4357C23.4182 11.4313 23.4299 11.4232 23.4431 11.4186C23.4565 11.4137 23.4705 11.4069 23.4849 11.3998C23.5447 11.3727 23.5989 11.3344 23.6448 11.2872L27.7334 6.86853V23.412L24.6348 26.6654H13.6218ZM30.9333 30.932H22.0442L30.9333 21.5988V30.932Z" fill="#162143"/>
<path d="M25.1072 29.5364C25.1897 29.7356 25.3843 29.8655 25.6001 29.8655H29.3333C29.628 29.8655 29.8667 29.6267 29.8667 29.3323V25.5989C29.8667 25.3042 29.6277 25.0657 29.3333 25.0657C29.1919 25.0657 29.0562 25.1218 28.9563 25.2219L25.2229 28.9551C25.0703 29.1077 25.0247 29.3372 25.1072 29.5364ZM28.8001 26.8862V28.7988H26.8875L28.8001 26.8862Z" fill="#162143"/>
<path d="M23.4666 20.2657H19.7334V14.399C19.7327 14.2574 19.6763 14.1216 19.5764 14.0213L16.3765 10.8214C16.1682 10.6131 15.8306 10.6131 15.6223 10.8214L12.4224 14.0213C12.323 14.1219 12.2671 14.2576 12.2666 14.399V20.2657H8.53345C8.23877 20.2657 8 20.5045 8 20.7989C8 21.0936 8.23877 21.3323 8.53345 21.3323H23.4668C23.7612 21.3323 24 21.0936 24 20.7989C24 20.5045 23.7612 20.2657 23.4666 20.2657ZM16 11.9529L17.9126 13.8655H14.0874L16 11.9529ZM13.3333 14.9322H18.6667V20.2657H13.3333V14.9322Z" fill="#162143"/>
<path d="M15.4666 8.53223H16.5334V9.59888H15.4666V8.53223Z" fill="#162143"/>
<path d="M15.4666 22.3989H16.5334V23.4656H15.4666V22.3989Z" fill="#162143"/>
</g>
<defs>
<clipPath id="clip0">
<rect width="32" height="32" fill="white"/>
</clipPath>
</defs>
</svg>
