<svg width="32" height="32" viewBox="0 0 32 32" fill="none" xmlns="http://www.w3.org/2000/svg">
<g clip-path="url(#clip0)">
<path d="M29.5 25C29.4127 25 29.329 25.0061 29.2451 25.0168L29.2451 25.0166L16.9798 26H15.0202L2.76929 25.0178C2.68054 25.0058 2.59229 25 2.5 25C1.09814 25 0 26.5374 0 28.5C0 30.4626 1.09814 32 2.5 32C2.59229 32 2.68054 31.9942 2.76929 31.9822L15.0202 31H16.9798L29.2451 31.9834L29.2451 31.9832C29.329 31.9939 29.4127 32 29.5 32C30.9019 32 32 30.4626 32 28.5C32 26.5374 30.9019 25 29.5 25ZM17.5 26.9615L27.6466 26.148C27.2434 26.7726 27 27.6 27 28.5C27 29.4 27.2434 30.2274 27.6466 30.852L17.5 30.0385V26.9615ZM2.67499 30.9866C2.66467 30.9874 2.65436 30.9886 2.6441 30.99C2.59662 30.9968 2.55078 31 2.5 31C1.68689 31 1 29.8551 1 28.5C1 27.1449 1.68689 26 2.5 26C2.55078 26 2.59662 26.0032 2.6441 26.01C2.65436 26.0114 2.66467 26.0126 2.67499 26.0134L14.5 26.9615V30.0385L2.67499 30.9866ZM16.5 30H15.5V27H16.5V30ZM29.5 31C29.451 31 29.4067 30.997 29.361 30.9908C28.5984 30.8612 28.0016 29.7715 28.0001 28.505C28.1583 28.7975 28.3735 29.0806 28.6465 29.3536C28.8976 29.6047 29.2024 29.734 29.5378 29.734C29.6124 29.734 29.6887 29.7276 29.7661 29.7147C29.9974 29.6762 30.2004 29.5367 30.3375 29.3219C30.5106 29.0509 30.5673 28.6761 30.482 28.367C30.4085 28.1007 30.1329 27.9445 29.8669 28.018C29.6008 28.0915 29.4446 28.3669 29.518 28.633C29.5244 28.6562 29.5215 28.6983 29.5134 28.7338C29.4547 28.7289 29.4096 28.7025 29.3536 28.6465C28.6077 27.9006 28.4824 27.1533 28.9472 26.2236C28.9566 26.2048 28.9642 26.1857 28.9711 26.1664C29.0942 26.0866 29.2249 26.0324 29.361 26.0092C29.4067 26.003 29.451 26 29.5 26C30.3131 26 31 27.1449 31 28.5C31 29.8551 30.3131 31 29.5 31Z" fill="#162143"/>
<path d="M0.0492633 21.7166C0.132515 21.8898 0.307686 22 0.499886 22H8.49988V22.7929L7.64631 23.6465C7.5033 23.7895 7.46058 24.0045 7.53797 24.1913C7.61536 24.3782 7.79768 24.5 7.99988 24.5H23.9999C24.2021 24.5 24.3844 24.3782 24.4618 24.1913C24.5392 24.0045 24.4965 23.7895 24.3535 23.6465L23.4999 22.7929V22H31.4999C31.6921 22 31.8673 21.8898 31.9505 21.7166C32.0338 21.5434 32.0104 21.3377 31.8903 21.1877L30.5402 19.5H31.4999C31.6921 19.5 31.8673 19.3898 31.9505 19.2166C32.0338 19.0434 32.0104 18.8377 31.8903 18.6877L30.5402 17H31.4999C31.7021 17 31.8844 16.8782 31.9618 16.6913C32.0392 16.5045 31.9965 16.2895 31.8535 16.1465L26.8535 11.1465C26.7596 11.0527 26.6325 11 26.4999 11H17.202L18.7055 9.49646H19.9999V9.5H21.9999C22.276 9.5 22.4999 9.27615 22.4999 9V4C22.4999 3.72385 22.276 3.5 21.9999 3.5H21.702L21.9359 3.26605C22.2921 2.90994 22.4963 2.41751 22.4963 1.91498C22.4963 1.40512 22.2973 0.925293 21.9359 0.563904C21.5745 0.202545 21.0947 0.00354004 20.5849 0.00354004C20.0825 0.00354004 19.59 0.207794 19.2338 0.563934L18.1488 1.64896L16.2942 3.50354H13.4999C13.3682 3.50354 13.2419 3.55585 13.1488 3.64896L11.6488 5.14896C11.5557 5.24207 11.5034 5.36832 11.5034 5.5V8.29434L10.1488 9.64896C10.0795 9.71826 10.0323 9.80652 10.0131 9.90265L9.7936 11H5.49989C5.36726 11 5.24012 11.0527 5.14631 11.1465L0.146309 16.1465C0.00330384 16.2895 -0.0394208 16.5045 0.0379718 16.6913C0.115364 16.8782 0.297676 17 0.499886 17H1.45957L0.109444 18.6877C-0.0106122 18.8377 -0.0340497 19.0434 0.0492633 19.2166C0.132515 19.3898 0.307686 19.5 0.499886 19.5H1.45957L0.109444 21.1877C-0.0106122 21.3377 -0.0340497 21.5434 0.0492633 21.7166ZM10.4999 20.5C10.4999 20.0344 10.5693 19.5809 10.7069 19.1498C10.8727 18.622 11.1385 18.126 11.4849 17.6922L13.7928 20H13.4999C13.2238 20 12.9999 20.2238 12.9999 20.5C12.9999 20.7762 13.2238 21 13.4999 21H14.4999V21.0848C12.9355 21.2573 11.5496 21.6661 10.7763 22.0528C10.3108 22.2855 9.83985 22.3972 9.49988 22.4507V21H9.99988C10.276 21 10.4999 20.7762 10.4999 20.5ZM20.9999 21H21.9999H22.4999V22.4507C22.1597 22.3971 21.6889 22.2855 21.2235 22.0528C20.4502 21.6661 19.0643 21.2573 17.4999 21.0848V21H18.4999C18.776 21 18.9999 20.7762 18.9999 20.5C18.9999 20.2238 18.776 20 18.4999 20H18.207L20.5148 17.6922C20.8613 18.1261 21.1273 18.6226 21.2936 19.152C21.381 19.4257 21.4405 19.7095 21.4724 20H20.9999C20.7238 20 20.4999 20.2238 20.4999 20.5C20.4999 20.7762 20.7238 21 20.9999 21ZM17.4999 19.2929V16.0279C18.2974 16.1155 19.0485 16.4123 19.6983 16.9026C19.7349 16.9295 19.771 16.9575 19.8069 16.9858L17.4999 19.2929ZM16.4999 15.5V21.0101C16.3339 21.0037 16.1672 21 15.9999 21C15.8326 21 15.6658 21.0037 15.4999 21.0101V15.5V15H16.4999V15.5ZM14.4999 19.2929L12.1929 16.9859C12.2301 16.9565 12.2677 16.9274 12.306 16.8991C12.9521 16.4117 13.7025 16.1154 14.4999 16.0279V19.2929ZM9.20698 23.5L9.2168 23.4902C9.59411 23.4624 10.4065 23.3557 11.2235 22.9472C12.1649 22.4765 14.1079 22 15.9999 22C17.8919 22 19.8348 22.4765 20.7763 22.9472C21.5933 23.3557 22.4057 23.4624 22.783 23.4902L22.7928 23.5H9.20698ZM30.4595 21H23.4999V20.5C23.4999 20.2238 23.276 20 22.9999 20H22.4777C22.4626 19.8315 22.4393 19.6647 22.409 19.5H29.2596L30.4595 21ZM30.4595 18.5H22.1231C21.911 17.9582 21.6122 17.4502 21.2409 17H29.2596L30.4595 18.5ZM14.9999 10.2021L15.7978 11H14.202L14.9999 10.2021ZM18.4999 8.50354C18.3682 8.50354 18.2419 8.55585 18.1488 8.64896L16.4999 10.2979L15.702 9.5L19.5034 5.69858V8.50354H18.4999ZM21.4999 8.5H20.4963V4.70566L20.702 4.5H21.4999V8.5ZM19.9359 1.26605C20.1073 1.09473 20.3438 0.99646 20.5849 0.99646C20.8295 0.99646 21.06 1.09219 21.2338 1.26602C21.4077 1.43985 21.5034 1.67032 21.5034 1.91498C21.5034 2.1561 21.4052 2.39264 21.2338 2.56393L20.4999 3.29788L19.202 2L19.9359 1.26605ZM18.4999 2.70209L19.7978 4L12.4999 11.2979L11.202 9.99998L18.4999 2.70209ZM10.8048 11.007L11.4929 11.6951L10.6328 11.8671L10.8048 11.007ZM12.4963 5.70563L13.7055 4.49646H15.3013L12.4963 7.30142V5.70563ZM5.70698 12H9.5936L9.51307 12.4026C9.48054 12.5654 9.53144 12.7337 9.64881 12.851C9.74287 12.9451 9.86951 12.9965 9.99988 12.9965C10.0322 12.9965 10.0649 12.9933 10.0972 12.9868L12.5972 12.4868C12.6934 12.4676 12.7816 12.4203 12.851 12.351L13.202 12H26.2928L30.2928 16H20.1575C19.3679 15.4415 18.4602 15.108 17.4999 15.0222V14.5C17.4999 14.2238 17.276 14 16.9999 14H14.9999C14.7238 14 14.4999 14.2238 14.4999 14.5V15.0222C13.538 15.1081 12.6293 15.4422 11.8422 16H1.70698L5.70698 12ZM10.7588 17C10.3873 17.4505 10.0883 17.9588 9.87661 18.5H1.54023L2.74021 17H10.7588ZM9.59083 19.5C9.56048 19.6648 9.53725 19.8316 9.52216 20H8.99988C8.72376 20 8.49988 20.2238 8.49988 20.5V21H1.54023L2.74021 19.5H9.59083Z" fill="#162143"/>
</g>
<defs>
<clipPath id="clip0">
<rect width="32" height="32" fill="white"/>
</clipPath>
</defs>
</svg>
