<svg width="32" height="32" viewBox="0 0 32 32" fill="none" xmlns="http://www.w3.org/2000/svg">
<path d="M25.9892 21.0002L26.5955 19.7744L24.6121 17.7911L23.3858 18.3974C22.9367 18.1472 22.4624 17.9506 21.9695 17.8102L21.5318 16.5151H18.7263L18.2886 17.8102C17.7956 17.9506 17.3213 18.1472 16.8722 18.3974L15.6459 17.7911L13.6625 19.7744L14.2689 21.0002C14.1986 21.1263 14.1341 21.2543 14.0723 21.3843L11.3548 20.4786V19.8586C12.0252 19.4093 12.5683 18.7878 12.9307 18.0605C14.0562 18.0456 14.9677 17.1278 14.9677 15.999V13.3236C15.567 13.1099 16 12.5421 16 11.87C16 11.1666 15.5257 10.5781 14.8826 10.3904C14.4655 7.94632 12.5003 6.05494 10.0275 5.73387C9.76512 5.38734 9.35383 5.16028 8.88735 5.16028H8.66104C8.19456 5.16028 7.78327 5.38734 7.52092 5.73387C5.0499 6.05494 3.08342 7.94758 2.66583 10.3904C2.02268 10.5781 1.54839 11.1666 1.54839 11.87C1.54839 12.5421 1.98135 13.1099 2.58065 13.3236V15.999C2.58065 17.1159 3.47354 18.0229 4.61618 18.0575C4.97858 18.7863 5.52218 19.4085 6.19355 19.8591V20.4791L2.04688 21.8614C0.822833 22.2689 0 23.4103 0 24.7011V29.9345H16.531C16.8402 30.088 17.6754 30.4919 18.2855 30.6948L18.7263 31.999H21.5318L21.9695 30.7041C22.4624 30.5638 22.9367 30.3672 23.3858 30.1167L24.6121 30.7233L26.5955 28.7397L25.9892 27.5139C26.2384 27.0648 26.4357 26.5905 26.5766 26.0983L27.871 25.6595V22.8543L26.5761 22.4161C26.4357 21.9236 26.2384 21.4493 25.9892 21.0002ZM16.8422 22.782C17.4204 21.4955 18.6998 20.6442 20.129 20.6442C22.1207 20.6442 23.7419 22.2649 23.7419 24.2571C23.7419 26.2495 22.1207 27.87 20.129 27.87C19.1545 27.87 18.2266 27.4715 17.5484 26.7785V24.7011C17.5484 23.9783 17.2835 23.3085 16.8422 22.782ZM16.5161 24.7011V28.9022H14.4516V25.592L14.3004 25.4405C13.7321 24.8725 13.4194 24.1167 13.4194 23.3133V22.255L15.1746 22.8405C15.9773 23.1076 16.5161 23.8556 16.5161 24.7011ZM4.12903 27.87H13.4194V28.9022H4.12903V27.87ZM12.3871 21.9108V23.3133C12.3871 24.3185 12.752 25.2681 13.4194 26.0108V26.8377H4.12903V26.0108C4.79637 25.2686 5.16129 24.319 5.16129 23.3133V21.9108L6.23337 21.5537C6.42414 22.7893 7.48589 23.7409 8.77419 23.7409C10.0625 23.7409 11.1242 22.7893 11.315 21.5537L12.3871 21.9108ZM13.9355 13.4183V14.2215C13.7755 14.128 13.6031 14.0554 13.4194 14.0078V13.4183H13.9355ZM13.3233 16.94C13.3863 16.6361 13.4194 16.3211 13.4194 15.999V15.1104C13.7266 15.2893 13.9355 15.6187 13.9355 15.999C13.9355 16.4186 13.6832 16.7785 13.3233 16.94ZM8.66104 6.19254H8.88735C9.10912 6.19254 9.29032 6.37323 9.29032 6.59576C9.29032 6.62878 9.28629 6.66229 9.27898 6.69329L8.88785 8.25705H8.66053L8.26991 6.6943C8.2621 6.66229 8.25806 6.62878 8.25806 6.59576C8.25806 6.37323 8.43926 6.19254 8.66104 6.19254ZM4.99521 8.04712L5.7316 9.52016L6.65499 9.05821L5.82611 7.40095C6.25958 7.13457 6.74067 6.9385 7.25378 6.82585C7.25983 6.86517 7.25832 6.90549 7.26815 6.94405L7.85559 9.28931H9.6933L10.2807 6.94304C10.2901 6.90499 10.2886 6.86517 10.2951 6.82585C10.8087 6.93901 11.2893 7.13457 11.7228 7.40095L10.8939 9.05872L11.8173 9.52066L12.5544 8.04712C13.1736 8.65675 13.6174 9.44178 13.8168 10.3221H3.73211C3.93196 9.44178 4.37576 8.65725 4.99521 8.04712ZM3.09677 11.3538H14.4516C14.7364 11.3538 14.9677 11.5857 14.9677 11.87C14.9677 12.1545 14.7364 12.3861 14.4516 12.3861H3.09677C2.812 12.3861 2.58065 12.1545 2.58065 11.87C2.58065 11.5857 2.812 11.3538 3.09677 11.3538ZM4.12903 14.0078C3.94531 14.0559 3.77293 14.128 3.6129 14.2215V13.4183H4.12903V14.0078ZM3.6129 15.999C3.6129 15.6187 3.82182 15.2893 4.12903 15.1104V15.999C4.12903 16.3211 4.16205 16.6361 4.22505 16.94C3.86517 16.7785 3.6129 16.4186 3.6129 15.999ZM5.16129 15.999V13.4183H12.3871V15.999C12.3871 17.9914 10.7659 19.6119 8.77419 19.6119C6.78251 19.6119 5.16129 17.9914 5.16129 15.999ZM8.77419 20.6442C9.31779 20.6442 9.83745 20.5456 10.3226 20.3732V21.1603C10.3226 22.0141 9.62777 22.7087 8.77419 22.7087C7.92061 22.7087 7.22581 22.0141 7.22581 21.1603V20.3732C7.71094 20.5456 8.23059 20.6442 8.77419 20.6442ZM1.03226 24.7011C1.03226 23.8556 1.57107 23.1076 2.37374 22.8405L4.12903 22.255V23.3133C4.12903 24.1167 3.81628 24.8725 3.24798 25.4405L3.09677 25.592V28.9022H1.03226V24.7011ZM26.8387 24.9194L25.7114 25.3007L25.6449 25.5784C25.506 26.159 25.2765 26.713 24.9632 27.2233L24.8135 27.4665L25.341 28.5343L24.4052 29.47L23.3377 28.942L23.0948 29.0917C22.5837 29.406 22.0305 29.6358 21.4493 29.7739L21.1716 29.8402L20.7908 30.9667H19.4672L19.0864 29.8397L18.8087 29.7734C18.5131 29.7029 17.9922 29.4803 17.5489 29.2765V28.1121C18.3059 28.6184 19.2006 28.9022 20.129 28.9022C22.6905 28.9022 24.7742 26.8183 24.7742 24.2571C24.7742 21.6961 22.6905 19.6119 20.129 19.6119C18.3891 19.6119 16.814 20.5885 16.0202 22.0965C15.8561 22.0043 15.6852 21.9221 15.5015 21.8609L15.0607 21.7137C15.1328 21.5701 15.2104 21.4287 15.2944 21.2916L15.4441 21.0479L14.9166 19.9801L15.8523 19.0444L16.9199 19.5723L17.1628 19.4226C17.6739 19.1084 18.2271 18.8785 18.8082 18.7402L19.0859 18.6741L19.4672 17.5474H20.7908L21.1716 18.6746L21.4493 18.7407C22.03 18.879 22.5832 19.1089 23.0948 19.4231L23.3377 19.5728L24.4052 19.0449L25.341 19.9806L24.8135 21.0484L24.9632 21.2916C25.2765 21.8019 25.5066 22.3551 25.6449 22.9365L25.7114 23.214L26.8387 23.595V24.9194Z" fill="#162143"/>
<path d="M31.9999 6.19265C31.9999 4.43232 31.2469 2.74961 29.9344 1.57496C28.6224 0.401826 26.8573 -0.158154 25.0947 0.0389226C22.3777 0.34235 20.1043 2.51801 19.6887 5.21055C19.3346 7.50062 20.261 9.77783 22.1058 11.1533C22.1383 11.1775 22.165 11.2111 22.1955 11.2385C21.8802 11.5223 21.6773 11.9295 21.6773 12.3862C21.6773 13.0583 22.1103 13.6261 22.7096 13.8398V13.9346C22.7096 15.6425 24.0985 17.0314 25.8064 17.0314C27.5143 17.0314 28.9031 15.6425 28.9031 13.9346V13.8398C29.5024 13.6261 29.9354 13.0583 29.9354 12.3862C29.9354 11.9285 29.7315 11.5208 29.4147 11.2368C29.4384 11.2163 29.4591 11.1894 29.4843 11.1707C31.0596 10.0069 31.9999 8.14578 31.9999 6.19265ZM25.8064 15.9991C24.6678 15.9991 23.7419 15.0732 23.7419 13.9346H27.8709C27.8709 15.0732 26.945 15.9991 25.8064 15.9991ZM28.387 12.9023H23.2257C22.9409 12.9023 22.7096 12.6707 22.7096 12.3862C22.7096 12.1019 22.9409 11.8701 23.2257 11.8701H28.387C28.6718 11.8701 28.9031 12.1019 28.9031 12.3862C28.9031 12.6707 28.6718 12.9023 28.387 12.9023ZM24.258 5.67652H23.7419C23.4571 5.67652 23.2257 5.44492 23.2257 5.1604C23.2257 4.87612 23.4571 4.64427 23.7419 4.64427C24.0266 4.64427 24.258 4.87612 24.258 5.1604V5.67652ZM26.3225 10.8378H25.2902V6.70878H26.3225V10.8378ZM28.387 10.8378H27.3548V6.70878H27.8709C28.7245 6.70878 29.4193 6.01423 29.4193 5.1604C29.4193 4.30682 28.7245 3.61201 27.8709 3.61201C27.0173 3.61201 26.3225 4.30682 26.3225 5.1604V5.67652H25.2902V5.1604C25.2902 4.30682 24.5954 3.61201 23.7419 3.61201C22.8883 3.61201 22.1935 4.30682 22.1935 5.1604C22.1935 6.01423 22.8883 6.70878 23.7419 6.70878H24.258V10.8378H23.2257C23.2212 10.8378 23.2164 10.8396 23.2119 10.8396C23.0677 10.6443 22.9099 10.4663 22.7224 10.3265C21.1849 9.17904 20.4132 7.2796 20.7091 5.36856C21.0549 3.12788 22.9475 1.3179 25.2098 1.06488C26.7013 0.898298 28.1368 1.35243 29.2459 2.34437C30.3401 3.32295 30.9677 4.72592 30.9677 6.19265C30.9677 7.84386 30.2038 9.35571 28.8711 10.3403C28.6899 10.4742 28.5362 10.648 28.3958 10.8388C28.3928 10.8388 28.39 10.8378 28.387 10.8378ZM27.3548 5.67652V5.1604C27.3548 4.87612 27.5861 4.64427 27.8709 4.64427C28.1557 4.64427 28.387 4.87612 28.387 5.1604C28.387 5.44492 28.1557 5.67652 27.8709 5.67652H27.3548Z" fill="#162143"/>
<path d="M9.80646 24.7732H11.871V25.8054H9.80646V24.7732Z" fill="#162143"/>
</svg>
